<svg xmlns="http://www.w3.org/2000/svg" width="32" height="12" fill="none" class="sc-2c06e71a-0 kOvwAC"><path fill="#000" d="M5.129 11.265c-.575-.994-1.157-1.99-1.747-2.988A215.83 215.83 0 0 0 1.636 5.37v5.894H0v-8.53h1.724a215.721 215.721 0 0 1 3.493 5.834V2.735h1.636v8.53H5.13Zm3.29-8.53h5.439v1.527h-3.736v1.85h3.316v1.526h-3.316v2.1h3.946v1.527H8.419v-8.53Zm13.228 8.53a273.845 273.845 0 0 1-1.437-5.774 203.665 203.665 0 0 1-1.414 5.774h-1.802c-.376-1.391-.737-2.8-1.083-4.223-.347-1.424-.675-2.86-.984-4.307h1.857c.184 1.105.38 2.21.586 3.316.206 1.106.423 2.192.652 3.258a279.18 279.18 0 0 0 1.404-6.217h1.658a281.31 281.31 0 0 0 1.392 6.085c.222-1.05.435-2.115.642-3.197.206-1.082.397-2.164.574-3.245h1.824c-.31 1.447-.637 2.883-.984 4.307a174.57 174.57 0 0 1-1.083 4.223h-1.802Zm7.091.18c-.433 0-.865-.053-1.288-.156a4.705 4.705 0 0 1-1.221-.489V9.154a4.498 4.498 0 0 0 2.51.775c.5 0 .881-.091 1.143-.274a.837.837 0 0 0 .292-.324.917.917 0 0 0 .1-.44.84.84 0 0 0-.041-.31.795.795 0 0 0-.152-.269 1.364 1.364 0 0 0-.514-.334 6.99 6.99 0 0 0-.718-.232 7.79 7.79 0 0 1-1.15-.382 3.289 3.289 0 0 1-.84-.507 1.895 1.895 0 0 1-.52-.704 2.484 2.484 0 0 1-.176-.984 2.5 2.5 0 0 1 .381-1.396 2.467 2.467 0 0 1 1.078-.901c.464-.211 1.017-.316 1.658-.316.417 0 .832.051 1.238.155.378.093.745.233 1.094.417v1.623a4.016 4.016 0 0 0-1.1-.501 4.38 4.38 0 0 0-1.232-.18c-.45 0-.798.084-1.045.251a.772.772 0 0 0-.277.303.849.849 0 0 0-.093.413.783.783 0 0 0 .177.531c.142.148.314.258.503.322.217.084.473.165.768.245.376.103.726.217 1.05.34.305.113.593.271.857.471.244.188.441.438.575.728.145.34.215.712.204 1.086 0 .565-.129 1.048-.387 1.45-.279.419-.668.739-1.116.918-.487.21-1.073.316-1.758.316Z"/></svg>